<?xml version="1.0" encoding="UTF-8"?>
<svg xmlns="http://www.w3.org/2000/svg" width="24" height="24" viewBox="0 0 100 115">
  <g featurekey="symbolFeature-0" transform="matrix(1.6665166354143939,0,0,1.6665166354143939,-3.3249772362539587,6.000900982170693)">
    <g xmlns="http://www.w3.org/2000/svg">
      <path d="M35.516,15.016Q34.265,14.95,33,14.931V11.814ZM32,6a1.962,1.962,0,1,1-1.962,1.962A1.964,1.964,0,0,1,32,6Zm-1,5.814v3.117q-1.263.018-2.516.085Zm.744,22.109h.512l1.461,4.869-4.9,4.905Zm-4.2,14h6.9L24.9,56.73Zm11.912,10h-12.9l10.1-9.324ZM34.369,40.968l1.487,4.955H29.414ZM32,31.923c-7.183,0-13.056-2.539-16.287-5.421C19.765,28.1,25.9,28.923,32,28.923S44.235,28.1,48.287,26.5C45.056,29.384,39.183,31.923,32,31.923Zm0-5c-11.772,0-19-2.912-19-5,0-1.565,4.063-3.594,11.059-4.511l-3.845,4.893,1.572,1.236,5.037-6.411q1.971-.158,4.177-.191v6.2a6.629,6.629,0,0,1-2.4-1.017l-1.2,1.6a8.256,8.256,0,0,0,4.73,1.523,7.321,7.321,0,0,0,4.47-1.523l-1.2-1.6A5.488,5.488,0,0,1,33,23.181V16.939q2.2.032,4.177.191l5.037,6.411,1.572-1.236-3.845-4.893c7,.917,11.059,2.946,11.059,4.511C51,24.011,43.772,26.923,32,26.923Z"/>
      <path d="M54.257,17.592c.159.177,3.853,4.38,0,8.662l1.486,1.338a8.323,8.323,0,0,0,0-11.338Z"/>
      <path d="M56.313,29.2l1.374,1.453c2.957-2.792,4.406-5.8,4.309-8.946-.156-4.993-4.184-8.406-4.356-8.549l-1.28,1.537c.035.029,3.509,2.969,3.637,7.074C60.076,24.314,58.836,26.814,56.313,29.2Z"/>
      <path d="M8.257,16.254a8.323,8.323,0,0,0,0,11.338l1.486-1.338c-3.828-4.254-.156-8.486,0-8.664L9,16.923Z"/>
      <path d="M6.36,13.155C6.188,13.3,2.16,16.711,2,21.7c-.1,3.144,1.352,6.154,4.309,8.946L7.687,29.2C5.168,26.818,3.929,24.323,4,21.781c.119-4.087,3.6-7.061,3.639-7.091L7,13.923Z"/>
    </g>
  </g>
</svg>